<svg id="Capa_1" data-name="Capa 1" xmlns="http://www.w3.org/2000/svg" viewBox="0 0 346.21 346.63">
    <title>Logo Web IDL to d.ts</title>
    <circle fill="none" stroke="#000" stroke-width="15px" cx="93.39" cy="93.39" r="85.89" />
    <path
        d="M64.06,95.67V107c5.2,0,9.29,1.11,12.27,2.89a13.11,13.11,0,0,1,6.32,7.55c1.11,3.1,1.49,8.65,1.49,16.42a116.64,116.64,0,0,0,.74,15.31,25,25,0,0,0,3.35,9.33,16.93,16.93,0,0,0,6,5.55,37.14,37.14,0,0,0,8.92,3.32,73.62,73.62,0,0,0,12.27.89H121V157.37h-3c-6.69,0-11.52-.89-13.76-2.67s-3.34-5.55-3.34-11.76c0-11.54-.37-18.87-.75-22-1.11-5.11-3-9.32-6.32-12.43a31.9,31.9,0,0,0-13.38-7.1c7.43-2.45,13-6,16-10.21s4.46-11.32,4.46-21.31c0-9.1,0-14.43.37-16.2A8.41,8.41,0,0,1,105,47.28c2.23-1.11,6.32-1.78,12.64-1.78h3V34.63H115a70,70,0,0,0-14.13,1.11c-4.09,1.11-7.81,2.66-10.41,5.1a17.3,17.3,0,0,0-5.21,9.1c-.74,3.78-1.11,9.77-1.49,18,0,8.44-.74,14.21-1.48,17.31A14.65,14.65,0,0,1,76,92.78a25.87,25.87,0,0,1-12.28,2.89Z"
        transform="translate(-8.47 -8.04)" />
    <path
        d="M336.29,166.45H184.83a18.38,18.38,0,0,0-18.38,18.38V336.29a18.38,18.38,0,0,0,18.38,18.38H336.29a18.37,18.37,0,0,0,18.38-18.38V184.83A18.37,18.37,0,0,0,336.29,166.45ZM275.64,270.89H252v67.24h-18.7V270.89h-23.5v-15.1h65.81Zm61,55.32a21.38,21.38,0,0,1-7.11,7.59A30.64,30.64,0,0,1,319.07,338a60.61,60.61,0,0,1-12.57,1.26,69.7,69.7,0,0,1-12.92-1.15A38.55,38.55,0,0,1,283,334.63v-18.4h0a35.3,35.3,0,0,0,10.87,6.3,34.93,34.93,0,0,0,11.85,2.1,25.88,25.88,0,0,0,6.13-.64,14.29,14.29,0,0,0,4.37-1.75,7.7,7.7,0,0,0,2.62-2.65,6.5,6.5,0,0,0,.86-3.3,7.18,7.18,0,0,0-1.38-4.32,14.73,14.73,0,0,0-3.77-3.5,39.19,39.19,0,0,0-5.66-3.11c-2.19-1-4.55-2-7.08-3.05q-9.66-4-14.41-9.83a21.43,21.43,0,0,1-4.75-14,22.26,22.26,0,0,1,2.59-11.07,22,22,0,0,1,7.05-7.62,31.41,31.41,0,0,1,10.33-4.4A53,53,0,0,1,315,254a75.7,75.7,0,0,1,11.42.77,45.31,45.31,0,0,1,9.18,2.39v17.2a27,27,0,0,0-4.52-2.53,35.49,35.49,0,0,0-5-1.82,38.31,38.31,0,0,0-5.15-1.06,36.57,36.57,0,0,0-4.86-.35,25.58,25.58,0,0,0-5.76.61,15,15,0,0,0-4.37,1.69,8.49,8.49,0,0,0-2.76,2.62,6.23,6.23,0,0,0-1,3.42,6.53,6.53,0,0,0,1.1,3.71,12.32,12.32,0,0,0,3.1,3.11,33.64,33.64,0,0,0,4.89,2.87q2.88,1.41,6.5,2.91a70.82,70.82,0,0,1,8.89,4.4,31.31,31.31,0,0,1,6.76,5.26,20.61,20.61,0,0,1,4.32,6.7,26.83,26.83,0,0,1-1.12,20.36Z"
        transform="translate(-8.47 -8.04)" />
</svg>
